<svg width="238" height="28" viewBox="0 0 238 28" fill="none" xmlns="http://www.w3.org/2000/svg">
<path d="M4.99518 27.2045C2.08823 28.8836 0 27.4844 0 24.9955C0 22.3459 0 14.396 0 14.396C0 14.396 0 6.44611 0 3.79657C0 1.30769 2.08694 -0.091584 4.99518 1.58754C9.52271 4.2021 23.104 12.0484 23.104 12.0484C24.9098 13.0913 24.9098 15.6994 23.104 16.7424C23.104 16.7437 9.52271 24.59 4.99518 27.2045Z" fill="#00C1FF"/>
<path d="M19.9446 27.2045C17.0376 28.8836 14.9494 27.4844 14.9494 24.9955C14.9494 22.3459 14.9494 14.396 14.9494 14.396C14.9494 14.396 14.9494 6.44611 14.9494 3.79657C14.9494 1.30769 17.0363 -0.091584 19.9446 1.58754C24.3723 4.14509 37.6557 11.819 37.6557 11.819C39.639 12.9644 39.639 15.8277 37.6557 16.973C37.6544 16.973 24.3723 24.647 19.9446 27.2045Z" fill="#FCDE00"/>
<mask id="mask0" mask-type="alpha" maskUnits="userSpaceOnUse" x="14" y="0" width="26" height="28">
<path d="M19.9446 27.2045C17.0376 28.8836 14.9494 27.4844 14.9494 24.9955C14.9494 22.3459 14.9494 14.396 14.9494 14.396C14.9494 14.396 14.9494 6.44611 14.9494 3.79657C14.9494 1.30769 17.0363 -0.091584 19.9446 1.58754C24.3723 4.14509 37.6557 11.819 37.6557 11.819C39.639 12.9644 39.639 15.8277 37.6557 16.973C37.6544 16.973 24.3723 24.647 19.9446 27.2045Z" fill="#FCDE00"/>
</mask>
<g mask="url(#mask0)">
<g filter="url(#filter0_f)">
<path d="M4.99518 27.2045C2.08823 28.8836 0 27.4844 0 24.9955C0 22.3459 0 14.396 0 14.396C0 14.396 0 6.44611 0 3.79657C0 1.30769 2.08694 -0.091584 4.99518 1.58754C9.52271 4.2021 23.104 12.0484 23.104 12.0484C24.9098 13.0913 24.9098 15.6994 23.104 16.7424C23.104 16.7437 9.52271 24.59 4.99518 27.2045Z" fill="#FF8A00"/>
</g>
</g>
<path d="M48.791 19.1224L49.3065 17.9552C49.6498 17.165 50.2677 16.9591 51.0579 17.5433C52.5683 18.6418 55.0399 19.4656 58.3366 19.4656C61.1514 19.4656 62.3536 18.7441 62.3536 17.8866C62.3536 16.9254 61.3574 16.6508 59.7097 16.4448L55.9673 15.9642C51.4698 15.38 49.2029 13.7673 49.2029 10.9511C49.2029 7.9303 51.6745 5.52608 57.4091 5.52608C60.6022 5.52608 62.6619 6.00666 64.0013 6.52222C65.4767 7.10644 65.684 7.58702 65.684 8.78784V10.3332C65.684 11.2944 65.3407 11.6377 64.3795 11.6377H63.3147C62.3536 11.6377 62.0103 11.2944 62.0103 10.3332V9.81766C61.3924 9.6117 59.847 9.3021 58.0283 9.3021C54.8689 9.3021 53.3248 9.88632 53.3248 10.8475C53.3248 11.5677 54.2523 11.9809 55.9337 12.2206L59.6074 12.7012C64.1049 13.2854 66.4742 14.6235 66.4742 17.8516C66.4742 21.147 63.3497 23.2417 57.7874 23.2417C53.7017 23.2417 50.405 21.9372 49.1005 20.7351C48.62 20.2895 48.5513 19.7066 48.791 19.1224Z" fill="black"/>
<path d="M89.3052 22.9683H87.4165C86.489 22.9683 86.1807 22.831 85.7338 22.1445L82.1625 16.8917C81.6469 16.1702 81.2699 15.9992 80.2064 15.9992H76.6351V21.6639C76.6351 22.6251 76.2918 22.9683 75.3306 22.9683H73.9575C72.9964 22.9683 72.6531 22.6251 72.6531 21.6639V4.59988H71.3823C70.4212 4.59988 70.0779 4.25661 70.0779 3.29544V2.16198C70.0779 1.20081 70.4212 0.857539 71.3823 0.857539H75.3306C76.2918 0.857539 76.6351 1.20081 76.6351 2.16198V12.1532H79.8282C80.8917 12.1532 81.27 11.9822 81.7842 11.2607L84.7714 6.65953C85.2519 5.9393 85.5615 5.80199 86.4877 5.80199H88.3764C89.4062 5.80199 89.6122 6.62585 89.0293 7.48469L85.6988 12.5315C85.3556 13.0121 84.9436 13.5276 84.5317 13.9396C84.9436 14.2828 85.5279 14.867 85.7675 15.2103L89.9555 21.3219C90.541 22.1445 90.335 22.9683 89.3052 22.9683Z" fill="black"/>
<path d="M95.7937 26.1265V24.993C95.7937 24.0318 96.137 23.6886 97.0982 23.6886H98.7459C99.742 23.6886 100.223 23.4826 100.6 22.6924L100.806 22.2455L92.9426 7.37847C92.462 6.48595 92.8403 5.7994 93.8701 5.7994H95.6551C96.5826 5.7994 96.9945 5.97039 97.3378 6.62326L100.633 13.3864C101.388 14.9318 102.247 16.7168 102.934 18.2622C103.62 16.7518 104.409 15.0354 105.166 13.5237L108.531 6.62585C108.841 5.97298 109.286 5.80199 110.214 5.80199H111.999C113.029 5.80199 113.407 6.48854 112.926 7.38106L103.966 24.3764C102.936 26.3337 101.734 27.4322 99.0568 27.4322H97.0982C96.137 27.4309 95.7937 27.0876 95.7937 26.1265Z" fill="black"/>
<path d="M115.895 19.1224L116.411 17.9552C116.754 17.165 117.372 16.9591 118.162 17.5433C119.673 18.6418 122.144 19.4656 125.441 19.4656C128.256 19.4656 129.458 18.7441 129.458 17.8866C129.458 16.9254 128.462 16.6508 126.814 16.4448L123.072 15.9642C118.574 15.38 116.307 13.7673 116.307 10.9511C116.307 7.9303 118.779 5.52608 124.514 5.52608C127.707 5.52608 129.766 6.00666 131.106 6.52222C132.581 7.10644 132.788 7.58702 132.788 8.78784V10.3332C132.788 11.2944 132.445 11.6377 131.484 11.6377H130.419C129.458 11.6377 129.115 11.2944 129.115 10.3332V9.81766C128.497 9.6117 126.951 9.3021 125.133 9.3021C121.973 9.3021 120.429 9.88632 120.429 10.8475C120.429 11.5677 121.357 11.9809 123.038 12.2206L126.712 12.7012C131.209 13.2854 133.579 14.6235 133.579 17.8516C133.579 21.147 130.454 23.2417 124.892 23.2417C120.806 23.2417 117.509 21.9372 116.205 20.7351C115.724 20.2895 115.656 19.7066 115.895 19.1224Z" fill="black"/>
<path d="M170.647 13.424V21.6639C170.647 22.6251 170.304 22.9683 169.343 22.9683H167.97C167.008 22.9683 166.665 22.6251 166.665 21.6639V13.7673C166.665 11.0897 165.361 9.47568 162.682 9.47568C160.519 9.47568 158.802 10.8151 157.531 12.2219V21.6639C157.531 22.6251 157.188 22.9683 156.227 22.9683H154.854C153.893 22.9683 153.549 22.6251 153.549 21.6639V13.7673C153.549 11.0897 152.279 9.47568 149.601 9.47568C147.506 9.44071 145.686 10.7115 144.417 12.0846V21.6639C144.417 22.6251 144.074 22.9683 143.113 22.9683H141.739C140.778 22.9683 140.435 22.6251 140.435 21.6639V9.54434H139.164C138.203 9.54434 137.86 9.20106 137.86 8.23989V7.10644C137.86 6.14527 138.203 5.80199 139.164 5.80199H142.495C143.456 5.80199 143.799 6.14527 143.799 7.10644V8.03393C144.966 6.83182 146.855 5.52737 149.705 5.52737C152.863 5.52737 154.923 6.5572 156.16 8.47954C157.67 6.93415 159.73 5.52737 162.752 5.52737C167.625 5.52608 170.647 8.20492 170.647 13.424Z" fill="black"/>
<path d="M185.411 12.2219H189.462V11.6377C189.462 10.1273 187.642 9.23474 184.759 9.23474C182.15 9.23474 180.055 10.1959 178.82 11.1234C178.029 11.7076 177.412 11.5353 177.068 10.7115L176.553 9.54434C176.313 8.96012 176.38 8.3772 176.862 7.9303C177.858 7.00281 180.776 5.52737 184.965 5.52737C189.703 5.52737 193.307 7.51837 193.307 11.0897V21.6639C193.307 22.6251 192.964 22.9683 192.003 22.9683H190.904C189.943 22.9683 189.6 22.6251 189.6 21.6639V20.7027C188.466 22.0421 186.132 23.243 182.87 23.243C179.059 23.243 175.764 21.4579 175.764 17.9552C175.763 14.1792 179.23 12.2219 185.411 12.2219ZM183.282 19.6379C185.445 19.6379 189.6 18.4708 189.6 15.38H185.857C181.599 15.38 179.849 16.2725 179.849 17.7493C179.848 18.9514 180.982 19.6379 183.282 19.6379Z" fill="black"/>
<path d="M217.064 13.0457C217.064 14.0069 216.721 14.3502 215.76 14.3502H214.387C213.426 14.3502 213.082 14.0756 213.082 13.0457C213.082 10.5055 212.121 9.37205 209.787 9.37205C207.59 9.37205 205.77 10.7452 204.74 12.3942V21.6639C204.74 22.6251 204.397 22.9683 203.436 22.9683H202.063C201.101 22.9683 200.758 22.6251 200.758 21.6639V9.54434H199.487C198.526 9.54434 198.183 9.20106 198.183 8.23989V7.10644C198.183 6.14527 198.526 5.80199 199.487 5.80199H202.818C203.779 5.80199 204.122 6.14527 204.122 7.10644V8.20492C205.358 6.83182 207.213 5.52737 210.406 5.52737C215.141 5.52608 217.064 8.30725 217.064 13.0457Z" fill="black"/>
<path d="M220.973 5.80199H223.273V1.30444C223.273 0.343274 223.616 0 224.578 0H225.951C226.912 0 227.255 0.343274 227.255 1.30444V5.80199H235.805C236.766 5.80199 237.109 6.14527 237.109 7.10644V8.23989C237.109 9.20106 236.766 9.54434 235.805 9.54434H227.255V17.0977C227.255 18.5744 228.251 19.3633 230.619 19.3633C232.543 19.3633 233.71 18.7104 234.396 18.1962C235.187 17.6119 235.736 17.8179 236.148 18.6081L236.801 19.9125C237.075 20.4968 236.938 20.9424 236.422 21.3893C235.805 21.9385 233.814 23.243 230.174 23.243C226.225 23.243 223.272 21.5603 223.272 17.6119V9.54304H220.971C220.01 9.54304 219.667 9.19977 219.667 8.2386V7.10514C219.668 6.14397 220.011 5.80199 220.973 5.80199Z" fill="black"/>
<defs>
<filter id="filter0_f" x="-2.0726" y="-1.21884" width="28.6036" height="31.2297" filterUnits="userSpaceOnUse" color-interpolation-filters="sRGB">
<feFlood flood-opacity="0" result="BackgroundImageFix"/>
<feBlend mode="normal" in="SourceGraphic" in2="BackgroundImageFix" result="shape"/>
<feGaussianBlur stdDeviation="1.0363" result="effect1_foregroundBlur"/>
</filter>
</defs>
</svg>
