<svg width="238" height="28" fill="none" xmlns="http://www.w3.org/2000/svg"><path d="M4.995 27.204C2.088 28.884 0 27.485 0 24.995V3.796C0 1.309 2.087-.091 4.995 1.589c4.528 2.614 18.109 10.46 18.109 10.46 1.806 1.043 1.806 3.651 0 4.694 0 .002-13.581 7.848-18.109 10.462z" fill="#00C1FF"/><path d="M19.945 27.204c-2.907 1.68-4.996.28-4.996-2.209V3.796c0-2.488 2.087-3.888 4.996-2.208l17.71 10.231c1.984 1.145 1.984 4.009 0 5.154l-17.71 10.232z" fill="#FCDE00"/><mask id="mask0" maskUnits="userSpaceOnUse" x="14" y="0" width="26" height="28"><path d="M19.945 27.204c-2.907 1.68-4.996.28-4.996-2.209V3.796c0-2.488 2.087-3.888 4.996-2.208l17.71 10.231c1.984 1.145 1.984 4.009 0 5.154l-17.71 10.232z" fill="#FCDE00"/></mask><g filter="url(#filter0_f)" mask="url(#mask0)"><path d="M4.995 27.204C2.088 28.884 0 27.485 0 24.995V3.796C0 1.309 2.087-.091 4.995 1.589c4.528 2.614 18.109 10.46 18.109 10.46 1.806 1.043 1.806 3.651 0 4.694 0 .002-13.581 7.848-18.109 10.462z" fill="#FF8A00"/></g><path d="M48.791 19.122l.516-1.167c.343-.79.96-.996 1.75-.412 1.511 1.099 3.983 1.923 7.28 1.923 2.814 0 4.017-.722 4.017-1.58 0-.96-.997-1.235-2.644-1.441l-3.743-.48c-4.497-.585-6.764-2.198-6.764-5.014 0-3.02 2.471-5.425 8.206-5.425 3.193 0 5.253.48 6.592.996 1.476.584 1.683 1.065 1.683 2.266v1.545c0 .961-.343 1.305-1.305 1.305h-1.064c-.961 0-1.305-.344-1.305-1.305v-.515c-.618-.206-2.163-.516-3.982-.516-3.16 0-4.703.584-4.703 1.546 0 .72.927 1.133 2.609 1.373l3.673.48c4.498.584 6.867 1.922 6.867 5.15 0 3.296-3.124 5.39-8.687 5.39-4.085 0-7.382-1.304-8.687-2.506-.48-.445-.549-1.028-.309-1.613zm40.514 3.846h-1.889c-.927 0-1.235-.137-1.682-.823l-3.572-5.253c-.515-.722-.892-.893-1.956-.893h-3.57v5.665c0 .961-.344 1.304-1.305 1.304h-1.374c-.96 0-1.304-.343-1.304-1.304V4.6h-1.27c-.962 0-1.305-.343-1.305-1.305V2.162c0-.961.343-1.304 1.304-1.304h3.949c.96 0 1.304.343 1.304 1.304v9.991h3.193c1.064 0 1.442-.17 1.956-.892l2.987-4.601c.48-.72.79-.858 1.717-.858h1.888c1.03 0 1.236.824.653 1.683L85.7 12.53c-.343.481-.755.997-1.167 1.409.412.343.996.927 1.236 1.27l4.188 6.112c.585.823.379 1.646-.65 1.646zm6.489 3.159v-1.134c0-.961.343-1.304 1.304-1.304h1.648c.996 0 1.477-.206 1.854-.997l.206-.447-7.863-14.867c-.481-.892-.103-1.579.927-1.579h1.785c.928 0 1.34.171 1.683.824l3.295 6.763a157.57 157.57 0 012.301 4.876c.686-1.51 1.475-3.227 2.232-4.738l3.365-6.898c.31-.653.755-.824 1.683-.824h1.785c1.03 0 1.408.687.927 1.58l-8.96 16.994c-1.03 1.958-2.232 3.056-4.91 3.056h-1.958c-.961-.001-1.304-.344-1.304-1.305zm20.101-7.005l.516-1.167c.343-.79.961-.996 1.751-.412 1.511 1.099 3.982 1.923 7.279 1.923 2.815 0 4.017-.722 4.017-1.58 0-.96-.996-1.235-2.644-1.441l-3.742-.48c-4.498-.585-6.765-2.198-6.765-5.014 0-3.02 2.472-5.425 8.207-5.425 3.193 0 5.252.48 6.592.996 1.475.584 1.682 1.065 1.682 2.266v1.545c0 .961-.343 1.305-1.304 1.305h-1.065c-.961 0-1.304-.344-1.304-1.305v-.515c-.618-.206-2.164-.516-3.982-.516-3.16 0-4.704.584-4.704 1.546 0 .72.928 1.133 2.609 1.373l3.674.48c4.497.584 6.867 1.922 6.867 5.15 0 3.296-3.125 5.39-8.687 5.39-4.086 0-7.383-1.304-8.687-2.506-.481-.445-.549-1.028-.31-1.613zm54.752-5.698v8.24c0 .961-.343 1.304-1.304 1.304h-1.373c-.962 0-1.305-.343-1.305-1.304v-7.897c0-2.677-1.304-4.291-3.983-4.291-2.163 0-3.88 1.34-5.151 2.746v9.442c0 .961-.343 1.304-1.304 1.304h-1.373c-.961 0-1.305-.343-1.305-1.304v-7.897c0-2.677-1.27-4.291-3.948-4.291-2.095-.035-3.915 1.235-5.184 2.609v9.579c0 .961-.343 1.304-1.304 1.304h-1.374c-.961 0-1.304-.343-1.304-1.304V9.544h-1.271c-.961 0-1.304-.343-1.304-1.304V7.106c0-.96.343-1.304 1.304-1.304h3.331c.961 0 1.304.343 1.304 1.304v.928c1.167-1.202 3.056-2.507 5.906-2.507 3.158 0 5.218 1.03 6.455 2.953 1.51-1.546 3.57-2.953 6.592-2.953 4.873 0 7.895 2.678 7.895 7.897zm14.764-1.202h4.051v-.584c0-1.51-1.82-2.403-4.703-2.403-2.609 0-4.704.96-5.939 1.888-.791.585-1.408.412-1.752-.412l-.515-1.167c-.24-.584-.173-1.167.309-1.614.996-.927 3.914-2.403 8.103-2.403 4.738 0 8.342 1.991 8.342 5.563v10.574c0 .961-.343 1.304-1.304 1.304h-1.099c-.961 0-1.304-.343-1.304-1.304v-.961c-1.134 1.34-3.468 2.54-6.73 2.54-3.811 0-7.106-1.785-7.106-5.288-.001-3.776 3.466-5.733 9.647-5.733zm-2.129 7.416c2.163 0 6.318-1.167 6.318-4.258h-3.743c-4.258 0-6.008.893-6.008 2.37-.001 1.201 1.133 1.888 3.433 1.888zm33.782-6.592c0 .96-.343 1.304-1.304 1.304h-1.373c-.961 0-1.305-.274-1.305-1.304 0-2.54-.961-3.674-3.295-3.674-2.197 0-4.017 1.373-5.047 3.022v9.27c0 .961-.343 1.304-1.304 1.304h-1.373c-.962 0-1.305-.343-1.305-1.304V9.544h-1.271c-.961 0-1.304-.343-1.304-1.304V7.106c0-.96.343-1.304 1.304-1.304h3.331c.961 0 1.304.343 1.304 1.304v1.099c1.236-1.373 3.091-2.678 6.284-2.678 4.735 0 6.658 2.78 6.658 7.519zm3.909-7.244h2.3V1.304c0-.96.343-1.304 1.305-1.304h1.373c.961 0 1.304.343 1.304 1.304v4.498h8.55c.961 0 1.304.343 1.304 1.304V8.24c0 .961-.343 1.304-1.304 1.304h-8.55v7.554c0 1.476.996 2.265 3.364 2.265 1.924 0 3.091-.653 3.777-1.167.791-.584 1.34-.378 1.752.412l.653 1.305c.274.584.137 1.03-.379 1.476-.617.55-2.608 1.854-6.248 1.854-3.949 0-6.902-1.683-6.902-5.631V9.543h-2.301c-.961 0-1.304-.343-1.304-1.304V7.105c.001-.961.344-1.303 1.306-1.303z" fill="#000"/><defs><filter id="filter0_f" x="-2.073" y="-1.219" width="28.604" height="31.23" filterUnits="userSpaceOnUse" color-interpolation-filters="sRGB"><feFlood flood-opacity="0" result="BackgroundImageFix"/><feBlend in="SourceGraphic" in2="BackgroundImageFix" result="shape"/><feGaussianBlur stdDeviation="1.036" result="effect1_foregroundBlur"/></filter></defs></svg>